HIERARCHY
ROOT Pelvis
{
	OFFSET 0.000000 0.941512 0.000000
	CHANNELS 6 Xposition Yposition Zposition Zrotation Yrotation Xrotation 
	JOINT Pelvis_L_Hip
	{
		OFFSET 0.000000 0.000000 0.000000
		CHANNELS 3 Zrotation Yrotation Xrotation
		JOINT L_Hip
		{
			OFFSET 0.062321 -0.080322 -0.016990
			CHANNELS 3 Zrotation Yrotation Xrotation
			JOINT L_Knee
			{
				OFFSET 0.093051 -0.381305 -0.029784
				CHANNELS 3 Zrotation Yrotation Xrotation
				JOINT L_Ankle
				{
					OFFSET -0.010371 -0.431000 -0.033614
					CHANNELS 3 Zrotation Yrotation Xrotation
					End Site #name: L_Foot
					{
						OFFSET 0.069299 -0.038670 0.119418
					}
				}
			}
		}
	}
	JOINT Pelvis_R_Hip
	{
		OFFSET 0.000000 0.000000 0.000000
		CHANNELS 3 Zrotation Yrotation Xrotation
		JOINT R_Hip
		{
			OFFSET -0.055334 -0.094904 -0.002373
			CHANNELS 3 Zrotation Yrotation Xrotation
			JOINT R_Knee
			{
				OFFSET -0.064207 -0.384370 -0.019592
				CHANNELS 3 Zrotation Yrotation Xrotation
				JOINT R_Ankle
				{
					OFFSET 0.025418 -0.419734 -0.065953
					CHANNELS 3 Zrotation Yrotation Xrotation
					End Site #name: R_Foot
					{
						OFFSET -0.057233 -0.039888 0.132134
					}
				}
			}
		}
	}
	JOINT Pelvis_Spine1
	{
		OFFSET 0.000000 0.000000 0.000000
		CHANNELS 3 Zrotation Yrotation Xrotation
		JOINT Spine1
		{
			OFFSET -0.005562 0.124093 -0.043360
			CHANNELS 3 Zrotation Yrotation Xrotation
			JOINT Spine2
			{
				OFFSET 0.012244 0.139499 0.029894
				CHANNELS 3 Zrotation Yrotation Xrotation
				JOINT Spine3
				{
					OFFSET -0.002556 0.056561 0.009225
					CHANNELS 3 Zrotation Yrotation Xrotation
					JOINT Spine3_Neck
					{
						OFFSET 0.000000 0.000000 0.000000
						CHANNELS 3 Zrotation Yrotation Xrotation
						JOINT Neck
						{
							OFFSET -0.005205 0.217920 -0.024551
							CHANNELS 3 Zrotation Yrotation Xrotation
							End Site #name: Head
							{
								OFFSET 0.002365 0.091850 0.046637
							}
						}
					}
					JOINT Spine3_L_Collar
					{
						OFFSET 0.000000 0.000000 0.000000
						CHANNELS 3 Zrotation Yrotation Xrotation
						JOINT L_Collar
						{
							OFFSET 0.072225 0.116603 -0.009480
							CHANNELS 3 Zrotation Yrotation Xrotation
							JOINT L_Shoulder
							{
								OFFSET 0.115937 -0.058643 -0.021018
								CHANNELS 3 Zrotation Yrotation Xrotation
								JOINT L_Elbow
								{
									OFFSET 0.021994 -0.254722 -0.024492
									CHANNELS 3 Zrotation Yrotation Xrotation
									End Site #name: L_Wrist
									{
										OFFSET 0.048810 -0.240214 0.103329
									}
								}
							}
						}
					}
					JOINT Spine3_R_Collar
					{
						OFFSET 0.000000 0.000000 0.000000
						CHANNELS 3 Zrotation Yrotation Xrotation
						JOINT R_Collar
						{
							OFFSET -0.073372 0.120704 -0.024611
							CHANNELS 3 Zrotation Yrotation Xrotation
							JOINT R_Shoulder
							{
								OFFSET -0.108089 -0.054969 -0.020504
								CHANNELS 3 Zrotation Yrotation Xrotation
								JOINT R_Elbow
								{
									OFFSET -0.033684 -0.260739 0.009889
									CHANNELS 3 Zrotation Yrotation Xrotation
									End Site #name: R_Wrist
									{
										OFFSET -0.067980 -0.232763 0.118463
									}
								}
							}
						}
					}
				}
			}
		}
	}
}
MOTION
Frames: 5
Frame Time: 0.041667
-1.011962 0.964242 1.693095 -12.812222 -44.060432 9.559494 0.000000 0.000000 0.000000 4.164742 -1.097030 -5.741669 11.658720 -1.721646 9.709778 -52.725056 -67.777352 31.824516 0.000000 0.000000 0.000000 -2.250990 0.592015 -2.581990 23.098933 2.793576 -14.287046 -88.137195 -65.361826 84.140831 0.000000 0.000000 0.000000 13.537949 -0.597038 -10.004694 29.206672 -1.560540 6.192678 -45.902443 -27.388678 10.491319 0.000000 0.000000 0.000000 38.339849 -9.195377 0.350521 0.000000 0.000000 0.000000 37.159406 -44.738862 -61.919828 -12.576826 9.948417 37.522989 -0.294664 -2.748622 -12.403157 0.000000 0.000000 0.000000 -7.686167 -28.097994 25.733883 24.184203 3.177014 -1.514518 -8.366261 -3.365141 -3.804573 
-1.032057 0.960979 1.683913 -11.616683 -43.348464 9.249653 0.000000 0.000000 0.000000 5.134741 -1.043471 -5.758018 11.703740 -1.725647 9.382198 -53.755627 -69.377776 32.315706 0.000000 0.000000 0.000000 -1.486220 0.596977 -3.163769 10.424493 1.234748 -17.966129 -93.563909 -62.276560 93.285879 0.000000 0.000000 0.000000 12.878570 -0.428692 -10.740040 30.096198 -0.915893 3.047808 -48.492342 -26.357319 13.704826 0.000000 0.000000 0.000000 41.177732 -8.768372 -2.559269 0.000000 0.000000 0.000000 38.601954 -46.602117 -67.013642 -10.988937 9.785569 40.132118 -1.373812 -3.501331 -12.994336 0.000000 0.000000 0.000000 -6.995301 -32.033718 28.046176 23.774448 3.545793 -2.773106 -9.082586 -4.072019 -2.153285 
-1.053532 0.956714 1.672452 -10.920908 -42.469532 8.946085 0.000000 0.000000 0.000000 6.490477 -0.927463 -5.609888 12.128695 -1.782354 9.216433 -54.142948 -71.366183 32.098707 0.000000 0.000000 0.000000 0.003677 0.571936 -3.812057 -0.235051 0.210970 -19.357385 -95.438570 -57.410416 101.831423 0.000000 0.000000 0.000000 12.203251 -0.304548 -11.248670 31.614212 -0.099497 -0.080244 -51.297626 -25.024580 16.832852 0.000000 0.000000 0.000000 43.713412 -8.285038 -5.342960 0.000000 0.000000 0.000000 40.105639 -48.718897 -72.268664 -9.802474 9.733397 42.650395 -1.916937 -3.706841 -12.536624 0.000000 0.000000 0.000000 -5.944858 -35.496476 29.486740 23.381607 3.930215 -3.922143 -10.150114 -5.023941 0.105698 
-1.076379 0.951465 1.658804 -10.418917 -41.595831 8.535451 0.000000 0.000000 0.000000 7.802183 -0.806034 -5.451829 13.221257 -1.922899 9.284108 -54.076418 -73.511928 31.417981 0.000000 0.000000 0.000000 1.158921 0.577077 -4.285488 -5.863249 -0.082352 -19.244351 -94.966624 -53.229330 107.455076 0.000000 0.000000 0.000000 11.539241 -0.192807 -11.678254 32.818100 0.780894 -3.021406 -53.763932 -23.486102 19.769247 0.000000 0.000000 0.000000 46.094263 -7.790427 -7.716612 0.000000 0.000000 0.000000 41.478186 -50.592201 -76.965905 -9.084359 9.881464 45.131428 -2.018553 -3.575390 -11.733213 0.000000 0.000000 0.000000 -4.530191 -38.685440 30.354770 23.002746 4.284996 -4.894614 -11.263270 -5.876765 2.045838 
-1.100728 0.947623 1.642961 -10.243020 -40.865418 8.598519 0.000000 0.000000 0.000000 8.981004 -0.757149 -5.810623 15.242368 -2.163250 9.596587 -54.905485 -75.187041 31.799575 0.000000 0.000000 0.000000 2.041660 0.565978 -4.480948 -6.353132 -0.102247 -19.346904 -96.015255 -52.006092 109.760927 0.000000 0.000000 0.000000 11.065575 0.056290 -12.748073 33.384545 1.543521 -5.449540 -55.565914 -21.895792 22.361907 0.000000 0.000000 0.000000 48.138431 -7.184359 -9.872856 0.000000 0.000000 0.000000 41.371128 -52.352808 -80.084424 -8.126005 10.077192 48.055408 -1.946554 -3.316160 -10.840520 0.000000 0.000000 0.000000 -2.833761 -41.640296 30.871280 22.848522 4.691069 -5.863156 -12.943286 -6.879633 3.716446 
